<svg width="128" height="128" viewBox="0 0 128 128" xmlns="http://www.w3.org/2000/svg">
  <!-- Background Circle -->
  <circle cx="64" cy="64" r="60" fill="#1a73e8" stroke="#1557b0" stroke-width="3"/>
  
  <!-- Main Shield -->
  <path d="M64 25 L95 45 L95 75 C95 95 80 110 64 115 C48 110 33 95 33 75 L33 45 Z" 
        fill="#ffffff" 
        stroke="#e8f0fe" 
        stroke-width="2"/>
  
  <!-- AI Robot Head (simplified) -->
  <rect x="54" y="55" width="20" height="16" rx="3" fill="#1a73e8"/>
  
  <!-- AI Robot Eyes -->
  <circle cx="59" cy="60" r="2" fill="#ffffff"/>
  <circle cx="69" cy="60" r="2" fill="#ffffff"/>
  
  <!-- AI Robot Antenna -->
  <line x1="64" y1="55" x2="64" y2="45" stroke="#1a73e8" stroke-width="2"/>
  <circle cx="64" cy="43" r="2" fill="#1a73e8"/>
  
  <!-- Local Processing Indicator (small dots) -->
  <circle cx="45" cy="50" r="2" fill="#34a853"/>
  <circle cx="45" cy="60" r="2" fill="#34a853"/>
  <circle cx="45" cy="70" r="2" fill="#34a853"/>
  
  <!-- Privacy Lock -->
  <circle cx="83" cy="50" r="6" fill="#34a853" stroke="#ffffff" stroke-width="1"/>
  <rect x="80" y="54" width="6" height="4" rx="1" fill="#34a853"/>
</svg>
