<svg width="128" height="128" viewBox="0 0 128 128" xmlns="http://www.w3.org/2000/svg">
  <!-- Background Circle -->
  <circle cx="64" cy="64" r="60" fill="#1a73e8"/>
  
  <!-- Shield -->
  <path d="M64 20 L100 45 L100 80 C100 100 85 115 64 120 C43 115 28 100 28 80 L28 45 Z" 
        fill="#ffffff"/>
  
  <!-- AI Robot -->
  <rect x="52" y="60" width="24" height="18" rx="4" fill="#1a73e8"/>
  
  <!-- Eyes -->
  <circle cx="58" cy="67" r="2" fill="#ffffff"/>
  <circle cx="70" cy="67" r="2" fill="#ffffff"/>
  
  <!-- Antenna -->
  <line x1="64" y1="60" x2="64" y2="50" stroke="#1a73e8" stroke-width="3"/>
  <circle cx="64" cy="48" r="3" fill="#1a73e8"/>
  
  <!-- Local Indicator -->
  <rect x="35" y="55" width="8" height="6" rx="1" fill="#34a853"/>
  <rect x="37" y="50" width="4" height="8" fill="#34a853"/>
  
  <!-- Privacy Lock -->
  <circle cx="85" cy="55" r="6" fill="#34a853"/>
  <rect x="82" y="58" width="6" height="4" rx="1" fill="#ffffff"/>
</svg>
