<svg width="128" height="128" viewBox="0 0 128 128" xmlns="http://www.w3.org/2000/svg">
  <!-- Background Circle -->
  <circle cx="64" cy="64" r="60" fill="#1a73e8" stroke="#1557b0" stroke-width="4"/>
  
  <!-- Shield Shape -->
  <path d="M64 20 L90 35 L90 65 C90 85 75 100 64 108 C53 100 38 85 38 65 L38 35 Z" 
        fill="#ffffff" 
        stroke="#e8f0fe" 
        stroke-width="2"/>
  
  <!-- AI Robot Head -->
  <rect x="52" y="45" width="24" height="20" rx="4" fill="#1a73e8"/>
  
  <!-- AI Robot Eyes -->
  <circle cx="58" cy="52" r="2" fill="#ffffff"/>
  <circle cx="70" cy="52" r="2" fill="#ffffff"/>
  
  <!-- AI Robot Antenna -->
  <line x1="64" y1="45" x2="64" y2="35" stroke="#1a73e8" stroke-width="2"/>
  <circle cx="64" cy="33" r="2" fill="#1a73e8"/>
  
  <!-- AI Robot Mouth -->
  <rect x="56" y="58" width="16" height="2" rx="1" fill="#ffffff"/>
  
  <!-- Local/Home Symbol -->
  <path d="M64 25 L70 30 L70 40 L58 40 L58 30 Z" fill="#1a73e8"/>
  <rect x="62" y="40" width="4" height="6" fill="#1a73e8"/>
  
  <!-- Privacy Lock -->
  <circle cx="90" cy="25" r="8" fill="#34a853" stroke="#ffffff" stroke-width="2"/>
  <rect x="86" y="30" width="8" height="6" rx="1" fill="#34a853"/>
  <rect x="87" y="32" width="6" height="4" fill="#ffffff"/>
</svg>